<?xml version="1.0" encoding="utf-8"?>
<svg width="800.002" height="800" viewBox="0 0 800.002 800" fill="none" xmlns="http://www.w3.org/2000/svg">
  <g id="real-earth-logo">
    <g id="earth">
      <path id="Shape" d="M768.559 244.294C738.183 172.484 687.483 111.453 623.656 68.3297C559.855 25.2047 482.756 -0.0124954 400 4.64494e-06C344.838 4.64494e-06 292.17 11.1984 244.294 31.4406C172.484 61.8188 111.453 112.517 68.3297 176.344C25.2047 240.145 -0.0124954 317.244 4.64494e-06 400C4.64494e-06 455.163 11.1984 507.844 31.4406 555.708C61.8188 627.516 112.517 688.545 176.344 731.67C240.144 774.795 317.244 800.014 400 800C455.164 800 507.844 788.803 555.708 768.559C627.516 738.181 688.547 687.483 731.672 623.656C774.797 559.856 800.016 482.756 800.002 400C800 344.839 788.816 292.156 768.559 244.294C768.559 244.294 768.559 244.294 768.559 244.294ZM668.459 172.419C669.669 173.848 670.85 175.319 672.044 176.777C669.706 176.067 667.37 175.358 665.034 174.636C666.176 173.902 667.319 173.155 668.459 172.419C668.459 172.419 668.459 172.419 668.459 172.419ZM598.175 158.097C604.909 157.428 594.447 158.491 598.175 158.097C595.366 157.9 593.239 156.756 591.822 154.695C600.905 148.777 607.417 157.164 598.175 158.097C598.175 158.097 598.175 158.097 598.175 158.097ZM454.558 126.761C457.078 133.233 439.002 127.194 437.033 126.236C435.878 125.081 435.011 123.767 434.435 122.298C434.408 123.755 453.732 124.608 454.558 126.761C454.558 126.761 454.558 126.761 454.558 126.761ZM404.36 117.822C408.771 119.319 426.269 115.366 426.833 120.512C427.885 129.964 420.599 120.603 419.089 120.603C414.992 120.603 420.98 124.947 421.136 125.17C420.111 123.675 407.916 123.831 405.344 124.448C397.9 138.05 377.617 108.738 404.36 117.822C404.36 117.822 404.36 117.822 404.36 117.822ZM424.549 135.978C419.692 137.762 411.356 136.241 406.183 136.241C396.575 133.719 432.372 133.116 424.549 135.978C424.549 135.978 424.549 135.978 424.549 135.978ZM123.806 489.359C123.531 493.456 123.978 486.788 123.806 489.359C123.872 488.323 125.566 480.367 127.062 479.908C129.427 479.2 134.27 490.844 134.073 492.472C132.984 501.884 123.269 497.106 123.806 489.359C123.806 489.359 123.806 489.359 123.806 489.359ZM212.734 529.952C207.653 523.728 204.622 516.731 199.791 510.377C198.806 509.064 182.555 499.823 185.637 498.195C192.267 494.742 247.364 527.128 244.909 532.064C244.672 532.538 232.583 521.444 229.523 523.439C227.489 524.764 233.725 529.583 233.725 531.906C236.875 533.52 244.895 545.416 238.306 545.769C231.034 546.164 216.987 535.175 212.734 529.952C212.734 529.952 212.734 529.952 212.734 529.952ZM242.022 532.103C242.35 534.244 236.325 530.252 235.97 530.108C237.151 527.944 241.747 530.331 242.022 532.103C242.022 532.103 242.022 532.103 242.022 532.103ZM237.375 551.888C231.284 548.002 257.014 551.022 258.405 551.127C263.486 551.506 276.245 551.245 279.58 557.336C280.577 559.159 243.084 555.538 237.375 551.888C241.181 554.328 234.566 550.103 237.375 551.888C237.375 551.888 237.375 551.888 237.375 551.888ZM294.822 496.319C301.267 489.755 308.633 501.373 309.156 500.9C305.1 504.602 299.022 511.744 307.2 516.011C313.344 519.227 299.9 521.537 299.9 522.68C299.9 527.314 292.445 539.547 287.69 541.452C287.967 541.347 269.076 536.109 267.422 535.636C263.3 534.442 262.039 523.008 259.519 519.345C259.52 512.556 288.297 502.961 294.822 496.319C294.822 496.319 294.822 496.319 294.822 496.319ZM261.766 440.42C264.509 438.345 267.044 438.109 269.341 439.711C271.166 449.689 258.616 441.852 261.766 440.42C261.766 440.42 261.766 440.42 261.766 440.42ZM305.809 479.475C305.823 479.448 305.836 479.436 305.862 479.422C305.967 479.33 306.02 479.291 306.006 479.303C307.647 477.964 311.953 474.144 313.659 473.763C318.306 472.702 302.619 482.034 305.809 479.475C305.809 479.475 305.809 479.475 305.809 479.475ZM315.091 459.809C314.211 454.57 314.855 453.6 315.236 449.372C315.905 442.008 324.478 438.791 326.185 447.666C326.486 449.189 317.245 463.103 324.281 462.223C329.925 461.514 334.127 461.252 332.303 468.367C330.622 467.252 320.094 462 318.808 462.277C317.561 462.539 313.558 475.942 309.356 474.681C311.191 475.236 315.327 462.422 315.091 459.809C315.091 459.809 315.091 459.809 315.091 459.809ZM313.647 420.427C313.778 418.352 316.838 412.419 320.172 413.102C324.017 413.903 319.03 428.947 316.286 427.214C314.317 425.35 313.438 423.091 313.647 420.441C313.594 421.372 313.45 423.748 313.647 420.427C313.647 420.427 313.647 420.427 313.647 420.427ZM333.561 469.38C333.586 469.367 333.586 469.355 333.614 469.355C341.109 465.573 339.008 475.945 339.809 476.311C338.798 475.853 332.97 469.708 333.561 469.38C333.561 469.38 333.561 469.38 333.561 469.38ZM340.912 481.313C339.469 481.077 342.619 481.589 340.912 481.313C343.289 481.694 344.458 486.577 344.694 488.153C345.664 494.783 345.547 491.92 341.162 493.653C339.967 494.113 341.294 497.945 338.55 498.13C337.237 498.208 330.056 496.711 332.381 493.955C337.211 488.231 323.533 492.681 323.533 492.183C323.533 490.266 325.698 485.816 328.508 486.406C336.725 488.1 336.844 480.656 340.912 481.313C340.912 481.313 340.912 481.313 340.912 481.313ZM349.117 523.572C347.069 520.841 348.933 514.08 350.928 511.834C349.341 513.619 355.156 516.612 355.431 515.366C354.814 518.175 349.47 524.044 349.117 523.572C349.117 523.572 349.117 523.572 349.117 523.572ZM359.422 536.253C359.303 535.098 349.983 535.334 348.565 535.112C346.109 535.111 358.739 529.322 359.422 536.253C359.422 536.253 359.422 536.253 359.422 536.253ZM349.537 410.686C343.433 412.077 350.812 406.394 352.137 406.275C353.934 406.105 349.866 410.241 349.537 410.686C349.537 410.686 349.537 410.686 349.537 410.686ZM347.489 556.233C349.878 562.391 334.203 563.533 332.011 564.058C333.692 563.65 343.392 560.014 344.351 557.402C344.522 556.916 346.269 553.069 347.489 556.233C347.489 556.233 347.489 556.233 347.489 556.233ZM313.37 536.514C309.865 538.431 313.698 545.625 309.995 545.992C304.522 546.542 307.436 532.312 308.642 528.48C314.576 509.733 323.254 535.503 328.125 523.058C327.731 524.069 311.176 518.909 313.92 518.056C313.959 518.044 314 518.044 314.039 518.03C318.554 516.666 334.347 513.055 338.114 513.973C339.006 514.183 327.704 529.805 321.495 529.333C328.992 529.909 325.722 540.925 322.965 543.944C321.981 545.02 329.858 548.078 328.781 548.814C324.989 551.428 308.709 539.062 313.37 536.514C313.37 536.514 313.37 536.514 313.37 536.514ZM322.651 557.716C323.584 558.189 318.384 559.317 317.716 559.448C315.564 560.183 313.516 560.092 311.572 559.173C310.101 557.992 321.392 557.086 322.651 557.716C322.651 557.716 322.651 557.716 322.651 557.716ZM311.402 560.853C310.391 561.484 309.314 561.484 308.172 560.853C305.087 558.975 309.919 559.278 311.402 560.853C311.402 560.853 311.402 560.853 311.402 560.853ZM321.169 468.828C321.169 468.828 321.169 468.828 321.155 468.828C321.116 468.789 321.075 468.763 321.036 468.737C321.063 468.75 321.089 468.777 321.127 468.802C320.76 468.553 316.939 465.967 319.814 465.664C323.872 465.245 321.222 468.869 321.169 468.828C321.169 468.828 321.169 468.828 321.169 468.828ZM326.224 481.694C321.852 481.694 321.511 475.366 321.327 472.911C324.606 463.158 327.233 481.694 326.224 481.694C326.224 481.694 326.224 481.694 326.224 481.694ZM328.086 559.581C329.242 558.977 340.911 555.827 340.123 557.061C339.388 558.23 326.314 564.255 325 561.63C325.356 560.198 326.38 559.516 328.086 559.581C328.086 559.581 328.086 559.581 328.086 559.581ZM341.936 536.253C341.948 536.253 341.962 536.253 341.962 536.253C341.922 536.253 341.948 536.253 341.922 536.253C340.137 536.333 339.387 535.741 339.73 534.467C343.55 532.708 344.955 536.503 341.962 536.253C342.684 536.319 342.33 536.291 341.936 536.253C341.936 536.253 341.936 536.253 341.936 536.253ZM327.667 476.153C327.522 476.088 327.573 476.114 327.653 476.141C325.631 475.341 327.483 470.838 329.347 472.831C329.964 473.502 328.834 476.588 327.667 476.153C327.667 476.153 327.667 476.153 327.667 476.153ZM331.631 477.387C331.5 478.45 330.686 482.783 328.756 482.783C328.416 481.627 328.416 480.472 328.756 479.317C328.967 477.545 329.924 476.903 331.631 477.387C331.631 477.387 331.631 477.387 331.631 477.387ZM316.18 476.85C316.18 476.85 316.18 476.85 316.18 476.85C315.273 478.675 304.023 492.222 302.369 484.95C302.409 485.134 315.444 478.347 316.18 476.85C316.18 476.85 316.18 476.85 316.18 476.85ZM304.536 557.402C302.173 558.019 300.178 559.423 297.551 557.939C294.873 556.43 304.431 557.402 304.536 557.402C304.536 557.402 304.536 557.402 304.536 557.402ZM292.892 556.758C291.342 556.758 292.195 555.733 293.311 555.603C294.441 555.472 294.297 556.758 292.892 556.758C292.892 556.758 292.892 556.758 292.892 556.758ZM439.632 715.327C430.837 735.7 421.24 703.039 422.448 703.42C433.987 707.384 447.101 698.025 439.632 715.327C439.632 715.327 439.632 715.327 439.632 715.327ZM459.139 658.892C456.094 667.831 453.18 677.217 447.666 685.213C440.066 696.227 434.289 690.359 424.128 690.266C418.311 690.213 419.677 694.744 413.322 692.263C409.752 690.858 404.881 689.767 401.691 687.706C405.63 690.253 394.825 672.977 395.809 679.252C395.272 675.866 391.398 677.558 388.234 676.941C389.942 674.775 389.863 671.414 391.595 669.261C387.303 669.156 383.641 671.034 380.948 674.381C368.858 659.442 357.62 658.05 338.18 662.933C333.677 664.063 324.736 671.309 322.23 671.309C312.016 671.309 309.666 670.902 302.052 676.928C296.827 681.063 283.766 678.241 282.242 671.309C281.545 668.159 287.27 663.814 287.283 660.544C287.295 658.47 281.283 656.487 280.548 654.388C279.419 651.094 282.111 647.206 279.328 644.477C278.159 643.334 272.883 639.555 272.698 637.992C272.463 635.931 277.189 633.725 277.189 631.139C277.189 627.489 277.189 623.853 277.189 620.203C277.189 611.947 299.519 610.109 308.38 606.052C318.738 601.325 311.136 598.386 317.569 592.884C319.5 591.244 326.208 594.459 328.228 592.884C329.383 591.992 327.888 587.634 329.449 585.888C331.655 583.447 341.63 573.219 342.392 582.959C342.839 588.736 342.288 588.275 348.627 588.275C353.733 588.275 348.352 585.769 350.661 583.669C354.167 580.466 358.474 570.161 363.002 568.808C365.653 568.006 378.913 573.914 383.18 573.928C381.695 578.194 380.252 582.488 378.703 586.741C385.37 590.116 397.856 600.472 405.614 595.969C409.236 593.856 410.72 575.635 411.784 571.367C416.286 578.325 424.019 583.485 426.658 590.258C430.688 600.577 437.383 600.93 443.422 609.372C449.053 617.21 454.213 624.785 458.9 633.12C465.245 644.411 463.381 646.433 459.139 658.892C459.139 658.892 459.139 658.892 459.139 658.892ZM371.04 375.242C372.681 377.498 365.12 389.236 363.373 386.152C362.167 384.011 361.839 378.761 360.945 376.108C360.775 375.609 360.447 374.611 360.945 376.095C359.475 371.763 369.125 372.617 371.04 375.242C371.04 375.242 371.04 375.242 371.04 375.242ZM418.733 316.22C424.969 316.208 425.245 324.228 432.177 322.114C430.824 322.52 436.049 327.772 428.802 329.123C424.245 329.95 417.919 334.951 412.917 331.67C413.586 332.117 413.258 331.906 412.93 331.695C415.977 333.744 407.508 335.464 407.194 333.086C407.194 333.128 422.159 316.206 418.733 316.22C418.733 316.22 418.733 316.22 418.733 316.22ZM419.639 276.666C419.639 276.809 422.145 273.212 423.158 271.703C422.055 276.116 433.213 297.525 429.931 298.536C427.884 299.167 425.086 295.202 424.313 296.147C420.861 300.361 427.031 306.819 425.061 308.605C425.559 308.158 420.439 309.734 419.167 310.469C419.194 310.706 419.233 310.837 419.272 310.837C418.748 310.837 418.8 310.692 419.167 310.469C418.786 306.966 419.863 279.094 419.639 276.666C419.639 276.666 419.639 276.666 419.639 276.666ZM456.186 567.878C444.175 570.398 428.867 546.191 421.989 556.862C417.065 564.503 395.655 553.423 394.787 556.733C396.009 552.058 403.912 555.275 398.817 548.461C394.434 542.592 388.894 542.92 381.79 541.897C376.711 541.162 378.115 538.064 375.897 535.228C374.531 533.483 373.034 538.287 371.695 537.789C371.511 537.723 364.12 526.88 364.12 526.525C373.283 514.513 375.829 530.844 380.95 532.931C391.281 537.145 391.425 525.541 401.415 530.109C406.495 532.433 444.697 546.388 443.411 549.63C442.742 550.405 441.928 550.995 440.956 551.377C442.784 554.328 454.912 568.153 456.186 567.878C456.186 567.878 456.186 567.878 456.186 567.878ZM373.653 374.572C373.653 374.558 373.653 374.558 373.653 374.545C375.07 370.095 387.214 368.441 385.061 373.364C383.945 375.925 372.013 379.875 373.653 374.572C373.653 374.572 373.653 374.572 373.653 374.572ZM408.153 346.794C408.166 346.519 413.037 329.503 415.531 334.059C418.275 339.088 417.016 364.423 411.041 368.073C409.492 367.942 408.928 367.141 409.359 365.67C409.359 368.874 388.539 373.561 388.828 373.848C385.586 370.488 390.928 368.492 382.959 369.253C383.077 369.253 365.289 371.577 370.856 368.4C376.791 365.013 381.909 364.159 388.867 364.028C394.564 363.923 394.053 355.784 398.148 355.417C400.066 355.247 398.989 360.681 402.442 357.819C406.997 354.041 407.627 352.281 408.153 346.794C408.153 346.794 408.153 346.794 408.153 346.794ZM457.078 549.577C453.953 550.339 445.605 546.111 448.519 545.744C445.947 546.058 447.6 545.848 448.545 545.73C453.678 545.086 460.439 543.078 464.509 542.658C468.592 542.252 458.655 549.197 457.078 549.577C457.078 549.577 457.078 549.577 457.078 549.577ZM468.291 542.409C467.489 541.569 466.872 540.638 466.478 539.588C463.053 534.113 474.539 544.694 468.291 542.409C468.291 542.409 468.291 542.409 468.291 542.409ZM588.079 603.992C586.636 603.769 586.123 602.942 586.531 601.523C588.068 597.113 591.311 603.138 591.822 603.664C590.575 603.769 589.326 603.888 588.079 603.992C588.079 603.992 588.079 603.992 588.079 603.992ZM593.684 596.141C592.333 596.141 596.69 591.388 599.291 593.961C601.969 596.6 594.211 596.009 593.684 596.141C593.684 596.141 593.684 596.141 593.684 596.141ZM621.097 201.378C613.928 200.027 616.241 194.88 610.608 194.406C604.005 193.855 607.589 202.244 601.681 200.656C579.967 194.828 600.697 209.202 594.053 215.675C594.722 215.031 582.592 213.967 580.441 214.703C576.042 216.212 569.913 217.237 566.21 219.941C561.22 223.591 556.233 227.241 551.244 230.877C548.619 232.808 545.272 227.727 541.635 229.42C537.367 231.403 527.916 230.222 525.08 232.072C522.047 234.067 519.816 243.309 518.333 246.459C512.464 258.97 505.664 285.658 487.51 287.431C486.616 279.947 478.202 248.809 493.338 247.194C505.442 245.881 522.744 228.422 519.475 216.186C507.333 216.672 513.464 223.591 508.252 225.928C498.745 230.181 497.408 220.978 494.074 222.356C484.109 226.505 483.177 226.191 481.13 236.036C480.369 239.686 467.306 237.245 463.775 237.112C453.719 236.758 428.841 233.069 421.372 238.058C409.767 245.803 398.163 253.548 386.556 261.294C392.778 273.136 409.753 265.219 413.469 277.18C415.924 285.028 405.356 300.52 399.541 306.492C393.816 312.386 388.08 318.281 382.344 324.177C376.856 329.82 376.108 323.414 370.856 326.381C362.703 330.977 362.73 344.97 351.216 345.35C356.086 351.77 356.967 356.312 357.556 363.861C358.147 371.502 352.489 370.872 345.045 373.536C344.822 368.823 344.127 364.098 345.045 359.437C346.372 352.781 338.68 358.912 340.005 352.269C342.302 340.73 327.652 347.267 321.495 348.934C321.967 345.6 320.852 341.991 321.495 338.683C315.141 342.267 308.789 345.862 302.435 349.447C308.197 354.423 312.253 360.816 320.931 356.614C321.824 362.981 316.047 363.703 310.285 366.867C318.319 371.555 318.778 382.227 321.141 389.959C324.16 399.78 317.622 403.1 310.758 411.148C303.458 419.708 301.922 422.058 290.842 425.103C284.699 426.809 278.555 428.503 272.411 430.197C269.286 431.062 271.913 435.553 265.978 435.553C264.444 425.037 252.155 433.388 248.388 437.916C242.795 444.609 253.324 449.612 258.944 455.1C274.027 469.844 252.891 478.73 241.864 486.291C237.859 475.709 225.874 472.744 222.789 464.25C218.588 479.622 217.656 479.991 229.091 491.7C237.427 500.245 238.556 507.006 241.864 518.059C235.13 514.987 227.213 513.517 224.563 506.9C221.319 498.827 218.905 494.325 212.891 487.733C206.695 480.933 206.431 460.77 203.164 451.434C200.734 453.259 196.6 453.181 194.184 455.019C192.372 448.087 187.595 428.592 179.049 425.809C172.091 423.539 156.797 433.069 151.205 437.164C143.828 442.586 127.024 450.017 126.774 459.18C126.355 475.17 125.933 476.364 112.872 486.8C100.361 468.566 93.9532 453.614 90.436 432.464C78.4642 438.331 71.886 422.186 64.6407 415.556C61.2798 412.498 55.0157 412.195 48.2954 412.484C48.1517 408.336 48.061 404.175 48.061 400C48.061 351.336 57.9063 305.112 75.7079 263.013C100.9 203.427 142.12 152.175 193.909 114.697C197.256 114.619 200.552 115.144 203.794 116.719C210.083 119.791 218.431 108.947 227.844 112.15C224.497 98.4844 257.013 97.8156 249.714 112.663C256.803 110.575 262.974 107.688 270.352 108.777C282.455 110.536 279.067 112.531 277.428 123.414C277.363 123.822 239.633 137.223 252.722 139.061C265.391 140.847 276.366 132.3 289.506 133.259C304.642 134.35 311.389 140.9 327.669 141.359C321.17 125.75 347.556 137.002 355.709 138.8C346.678 146.219 364.675 154.672 370.859 159.819C370.636 148.411 394.095 150.486 404.609 151.023C410.4 151.327 407.708 140.652 414.875 141.9C424.603 143.594 434.317 145.286 444.044 146.98C452.25 148.411 456.567 146.442 464.588 150.734C470.075 153.675 466.374 160.725 473.881 159.925C479.225 159.359 491.999 155.541 495.831 159.359C501.542 165.044 498.327 171.569 507.7 174.68C509.813 164.269 527.811 164.348 536.856 166.986C541.044 168.22 560.25 183.461 553.122 164.938C570.108 168.391 587.081 171.83 604.069 175.283C610.725 176.636 610.869 181.833 616.5 184.42C620.163 186.102 630.338 185.589 635.563 187.492C646.642 198.281 630.352 203.137 621.097 201.378C621.097 201.378 621.097 201.378 621.097 201.378ZM635.458 210.397C635.733 209.478 636.024 208.559 636.311 207.641C638.544 205.434 651.342 205.225 653.208 208.309C654.9 211.106 636.627 211.395 635.458 210.397C635.458 210.397 635.458 210.397 635.458 210.397ZM682.979 262.789C690.751 255.189 698.443 247.548 706.543 240.25C690.686 241.052 687.062 244.831 684.109 229.997C680.748 232.044 677.375 234.092 674.014 236.141C669.892 230.011 660.204 221.216 669.523 214.612C672.308 212.656 678.911 215.373 681.864 213.587C684.726 211.869 687.009 204.2 688.598 201.286C680.511 198.411 680.301 205.541 674.014 205.395C667.95 205.252 659.548 200.25 653.823 198.214C659.1 187.292 671.769 188.986 680.406 187.372C684.345 192.556 688.19 197.82 691.853 203.244C701.869 218.078 710.744 233.725 718.45 250.03C708.447 257.486 695.556 266.742 682.979 262.789C682.979 262.789 682.979 262.789 682.979 262.789ZM708.094 434.525C706.451 434.828 705.48 431.795 707.725 431.795C709.97 431.795 709.97 434.184 708.094 434.525C708.094 434.525 708.094 434.525 708.094 434.525ZM714.08 443.414C713.345 442.508 713.725 442.98 714.067 443.388C710.563 439.108 711.469 433.686 717.822 436.588C721.091 438.056 716.297 446.092 714.08 443.414C714.08 443.414 714.08 443.414 714.08 443.414Z" fill="#6EE7B7" />
      <path id="Path" d="M0 0C0 0 0 0.0124817 0 0.0124817C0.0780945 0.248444 0.131226 0.381287 0 0C0 0 0 0 0 0Z" fill="#6EE7B7" fill-rule="evenodd" transform="translate(360.945 376.096)" />
      <path id="Path" d="M0.0265503 0.0630493C0.0140686 0.0630493 0.0140686 0.0771484 0 0.0771484C0.867218 -0.0432129 0.564056 -0.00256348 0.0265503 0.0630493C0.0265503 0.0630493 0.0265503 0.0630493 0.0265503 0.0630493Z" fill="#6EE7B7" fill-rule="evenodd" transform="translate(448.521 545.669)" />
    </g>
    <g id="Group" transform="translate(71 302)">
      <path id="Path" d="M0 0C360.394 0 329 441.996 329 441.996C329 441.996 658.001 442.075 658 0C293.48 0 329 441.996 329 441.996C329 441.996 0 442.075 0 0Z" fill="#5B9B0E" fill-rule="evenodd" stroke-width="5" stroke="#333333" stroke-linecap="square" />
      <path id="Path" d="M327 0L0 438" fill="none" stroke-width="6" stroke="#333333" transform="translate(329 2)" />
      <path id="Path" d="M0 0L328.5 439.5" fill="none" stroke-width="6" stroke="#333333" transform="translate(1.5 1.5)" />
    </g>
  </g>
</svg>